<?xml version="1.0" standalone="no"?><!DOCTYPE svg PUBLIC "-//W3C//DTD SVG 1.1//EN"
        "http://www.w3.org/Graphics/SVG/1.1/DTD/svg11.dtd">
<svg t="1542880467054" class="icon" style="" viewBox="0 0 1024 1024" version="1.1" xmlns="http://www.w3.org/2000/svg"
     p-id="896" xmlns:xlink="http://www.w3.org/1999/xlink" width="200" height="200">
    <defs>
        <style type="text/css"></style>
    </defs>
    <path d="M495.786667 42.666667l241.493333 241.92-90.453333 90.453333-90.453334-90.453333-60.586666 60.586666 99.413333 98.986667-49.493333 49.92 19.2 19.626667a106.666667 106.666667 0 0 1 120.746666 21.333333l-150.613333 150.613333a106.666667 106.666667 0 0 1-21.333333-120.746666l-19.626667-19.2-49.92 49.493333-98.986667-99.413333-60.586666 60.586666 90.453333 90.453334-90.453333 90.453333L42.666667 495.786667 133.973333 405.333333l90.453334 90.453334 60.16-60.16-120.746667-120.746667c-33.28-33.28-33.28-87.466667 0-120.746667l30.293333-30.293333c33.28-33.28 87.466667-33.28 120.746667 0l120.746667 120.746667 60.16-60.16L405.333333 133.973333 495.786667 42.666667M768 597.333333a170.666667 170.666667 0 0 1-170.666667 170.666667v-85.333333a85.333333 85.333333 0 0 0 85.333334-85.333334h85.333333m170.666667 0a341.333333 341.333333 0 0 1-341.333334 341.333334v-85.333334a256 256 0 0 0 256-256h85.333334z"
          fill="" p-id="897"></path>
</svg>